<svg width="1920" height="1080" viewBox="0 0 1920 1080" xmlns="http://www.w3.org/2000/svg"><rect width="1920" height="1080" fill="#e0f7ff"/><path d="M 0,1080 C 0,1080 0,154 0,154 C 69.84646539027986,130.7523932253314 139.69293078055972,107.50478645066275 239,112 C 338.3070692194403,116.49521354933725 467.0747422680412,148.7332474226804 563,158 C 658.9252577319588,167.2667525773196 722.0081001472755,153.56222385861562 810,155 C 897.9918998527245,156.43777614138438 1010.8928571428571,173.01785714285714 1100,159 C 1189.107142857143,144.98214285714286 1254.4204712812962,100.3663475699558 1330,100 C 1405.5795287187038,99.6336524300442 1491.4252577319587,143.51675257731958 1610,160 C 1728.5747422680413,176.48324742268042 1879.878497790869,165.56664212076583 1937,160 C 1994.121502209131,154.43335787923417 1957.0607511045655,154.21667893961708 1920,154 C 1920,154 1920,1080 1920,1080 Z" fill="#ba9dc8" opacity="0.08571428571428572"/><path d="M 0,1080 C 0,1080 0,308 0,308 C 78.09204712812962,323.3240058910162 156.18409425625924,338.6480117820324 262,344 C 367.81590574374076,349.3519882179676 501.35567010309273,344.73195876288656 588,343 C 674.6443298969073,341.26804123711344 714.3932253313696,342.4241531664212 777,334 C 839.6067746686304,325.5758468335788 925.0714285714287,307.57142857142856 1046,317 C 1166.9285714285713,326.42857142857144 1323.3210603829161,363.2901325478645 1419,364 C 1514.6789396170839,364.7098674521355 1549.644329896907,329.2680412371134 1649,307 C 1748.355670103093,284.7319587628866 1912.101620029455,275.6377025036819 1968,278 C 2023.898379970545,280.3622974963181 1971.9491899852724,294.18114874815905 1920,308 C 1920,308 1920,1080 1920,1080 Z" fill="#ba9dc8" opacity="0.17142857142857143"/><path d="M 0,1080 C 0,1080 0,462 0,462 C 93.09057437407955,465.5686671575847 186.1811487481591,469.13733431516937 278,475 C 369.8188512518409,480.86266568483063 460.36597938144325,489.01932989690727 552,495 C 643.6340206185567,500.98067010309273 736.3549337260679,504.7853460972017 822,481 C 907.6450662739321,457.2146539027983 986.2142857142856,405.8392857142857 1096,411 C 1205.7857142857144,416.1607142857143 1346.7879234167895,477.8575110456553 1421,495 C 1495.2120765832105,512.1424889543447 1502.6340206185569,484.7306701030928 1600,476 C 1697.3659793814431,467.2693298969072 1884.6759941089838,477.21980854197346 1953,478 C 2021.3240058910162,478.78019145802654 1970.662002945508,470.3900957290133 1920,462 C 1920,462 1920,1080 1920,1080 Z" fill="#ba9dc8" opacity="0.2571428571428571"/><path d="M 0,1080 C 0,1080 0,617 0,617 C 120.32455817378496,624.6787555228277 240.64911634756993,632.3575110456553 319,639 C 397.35088365243007,645.6424889543447 433.7280927835052,651.2487113402061 505,650 C 576.2719072164948,648.7512886597939 682.4385125184093,640.6476435935199 781,636 C 879.5614874815907,631.3523564064801 970.5178571428573,630.1607142857143 1061,640 C 1151.4821428571427,649.8392857142857 1241.4900589101621,670.709499263623 1346,653 C 1450.5099410898379,635.290500736377 1569.5219072164946,579.0012886597938 1677,568 C 1784.4780927835054,556.9987113402062 1880.4223122238589,591.2853460972018 1919,607 C 1957.5776877761411,622.7146539027982 1938.7888438880705,619.857326951399 1920,617 C 1920,617 1920,1080 1920,1080 Z" fill="#ba9dc8" opacity="0.34285714285714286"/><path d="M 0,1080 C 0,1080 0,771 0,771 C 105.30522827687778,790.5741899852724 210.61045655375557,810.1483799705449 308,810 C 405.38954344624443,809.8516200294551 494.8634020618557,789.9806701030928 583,788 C 671.1365979381443,786.0193298969072 757.9359351988217,801.9289396170839 842,787 C 926.0640648011783,772.0710603829161 1007.3928571428573,726.3035714285714 1095,735 C 1182.6071428571427,743.6964285714286 1276.4926362297495,806.8567746686305 1373,808 C 1469.5073637702505,809.1432253313695 1568.6365979381444,748.2693298969072 1677,740 C 1785.3634020618556,731.7306701030928 1902.9609720176732,776.0659057437408 1945,790 C 1987.0390279823268,803.9340942562592 1953.5195139911634,787.4670471281296 1920,771 C 1920,771 1920,1080 1920,1080 Z" fill="#ba9dc8" opacity="0.4285714285714286"/><path d="M 0,1080 C 0,1080 0,925 0,925 C 92.96870397643593,892.8751840942563 185.93740795287187,860.7503681885125 265,874 C 344.06259204712813,887.2496318114875 409.21907216494844,945.8737113402062 498,959 C 586.7809278350516,972.1262886597938 699.1863033873345,939.7547864506628 803,933 C 906.8136966126655,926.2452135493372 1002.035714285714,945.1071428571428 1112,937 C 1221.964285714286,928.8928571428572 1346.6708394698087,893.8166421207659 1416,875 C 1485.3291605301913,856.1833578792341 1499.2809278350517,853.6262886597939 1598,880 C 1696.7190721649483,906.3737113402061 1880.2054491899853,961.6782032400589 1948,974 C 2015.7945508100147,986.3217967599411 1967.8972754050073,955.6608983799706 1920,925 C 1920,925 1920,1080 1920,1080 Z" fill="#ba9dc8" opacity="0.5142857142857142"/><path d="M 0,1080 C 0,1080 0,1079 0,1079 C 96.82584683357877,1092.994845360825 193.65169366715753,1106.9896907216496 287,1113 C 380.34830633284247,1119.0103092783504 470.21907216494844,1117.0360824742268 552,1125 C 633.7809278350516,1132.9639175257732 707.4720176730486,1150.8659793814434 814,1129 C 920.5279823269514,1107.1340206185566 1059.8928571428573,1045.5 1148,1025 C 1236.1071428571427,1004.5 1272.956553755523,1025.1340206185566 1351,1057 C 1429.043446244477,1088.8659793814434 1548.2809278350514,1131.9639175257732 1663,1129 C 1777.7190721649486,1126.0360824742268 1887.919734904271,1077.0103092783504 1930,1061 C 1972.080265095729,1044.9896907216496 1946.0401325478645,1061.994845360825 1920,1079 C 1920,1079 1920,1080 1920,1080 Z" fill="#ba9dc8" opacity="0.6"/></svg>