<svg width="251" height="51" viewBox="0 0 251 51" fill="none" xmlns="http://www.w3.org/2000/svg">
<path d="M23.5843 1.50837V5.53071C27.3087 6.31283 30.2882 7.80258 32.5228 9.99996C34.7947 12.1973 35.9306 14.3947 35.9306 16.5921C35.9306 16.9273 35.8003 17.2253 35.5395 17.486C35.3161 17.7094 35.0554 17.8212 34.7574 17.8212H23.5843C22.7277 17.8212 21.9456 17.5046 21.2379 16.8714C20.5303 16.2383 19.5806 15.9217 18.3888 15.9217C16.6011 15.9217 15.7072 16.4431 15.7072 17.486C15.7072 18.0446 16.1355 18.5102 16.9921 18.8826C17.886 19.2551 19.5247 19.5902 21.9083 19.8882C27.4576 20.5958 31.4055 21.8994 33.7518 23.7988C36.1354 25.661 37.3272 28.3425 37.3272 31.8435C37.3272 35.3444 36.061 38.2308 33.5284 40.5027C31.033 42.7373 27.7183 44.1898 23.5843 44.8602V48.7708C23.5843 49.1805 23.4353 49.5343 23.1374 49.8322C22.8394 50.1302 22.4856 50.2792 22.0759 50.2792H15.3162C14.9065 50.2792 14.5527 50.1302 14.2547 49.8322C13.9568 49.5343 13.8078 49.1805 13.8078 48.7708V44.916C9.48749 44.2829 6.17279 42.9049 3.86368 40.782C1.55456 38.6218 0.400002 36.1451 0.400002 33.3518C0.400002 33.0166 0.511733 32.7373 0.735196 32.5139C0.995903 32.2531 1.29385 32.1228 1.62905 32.1228H12.2435C13.0257 32.1228 13.8823 32.4952 14.8134 33.2401C15.7817 33.985 17.1039 34.3574 18.7798 34.3574C21.5731 34.3574 22.9698 33.836 22.9698 32.7932C22.9698 32.1228 22.467 31.62 21.4614 31.2848C20.4558 30.9124 18.5564 30.5399 15.7631 30.1675C6.15417 28.9012 1.34972 24.8044 1.34972 17.877C1.34972 14.7113 2.46703 12.0111 4.70166 9.7765C6.97354 7.54187 10.0089 6.08936 13.8078 5.41898V1.50837C13.8078 1.09869 13.9568 0.744875 14.2547 0.446923C14.5527 0.148974 14.9065 0 15.3162 0H22.0759C22.4856 0 22.8394 0.148974 23.1374 0.446923C23.4353 0.744875 23.5843 1.09869 23.5843 1.50837Z" fill="black"/>
<path d="M42.7759 32.5697V17.1508C42.7759 16.7411 42.9249 16.3873 43.2228 16.0893C43.5208 15.7914 43.8746 15.6424 44.2843 15.6424H54.9546C55.3643 15.6424 55.7181 15.7914 56.0161 16.0893C56.314 16.3873 56.463 16.7411 56.463 17.1508V32.1787C56.463 34.2271 57.3941 35.2513 59.2563 35.2513C61.1185 35.2513 62.0496 34.2271 62.0496 32.1787V17.1508C62.0496 16.7411 62.1986 16.3873 62.4965 16.0893C62.7945 15.7914 63.1483 15.6424 63.558 15.6424H74.1724C74.5821 15.6424 74.9359 15.7914 75.2339 16.0893C75.5318 16.3873 75.6808 16.7411 75.6808 17.1508V43.1842C75.6808 43.5939 75.5318 43.9477 75.2339 44.2457C74.9359 44.5436 74.5821 44.6926 74.1724 44.6926H64.3959C63.9863 44.6926 63.6324 44.5436 63.3345 44.2457C63.0365 43.9477 62.8876 43.5939 62.8876 43.1842V41.3406C61.1371 43.9477 58.0459 45.2512 53.6139 45.2512C50.5599 45.2512 47.99 44.1898 45.9044 42.0669C43.8187 39.9068 42.7759 36.741 42.7759 32.5697Z" fill="black"/>
<path d="M113.87 27.9329V32.3463C113.87 36.741 112.772 39.9999 110.574 42.1228C108.377 44.2084 105.509 45.2512 101.971 45.2512C98.4327 45.2512 95.6953 44.0036 93.7586 41.5082V43.1842C93.7586 43.5939 93.6096 43.9477 93.3117 44.2457C93.0137 44.5436 92.6599 44.6926 92.2502 44.6926H82.7531C82.3434 44.6926 81.9896 44.5436 81.6916 44.2457C81.3937 43.9477 81.2447 43.5939 81.2447 43.1842V6.53629C81.2447 6.12661 81.3937 5.77279 81.6916 5.47484C81.9896 5.17689 82.3434 5.02791 82.7531 5.02791H93.0882C93.4979 5.02791 93.8517 5.17689 94.1497 5.47484C94.4476 5.77279 94.5966 6.12661 94.5966 6.53629V17.7094C96.5333 15.959 99.1031 15.0837 102.306 15.0837C105.546 15.0837 108.284 16.1824 110.518 18.3798C112.753 20.5772 113.87 23.7616 113.87 27.9329ZM94.5966 32.0111C94.5966 34.1712 95.5277 35.2513 97.3899 35.2513C99.2521 35.2513 100.183 34.1712 100.183 32.0111V28.3239C100.183 26.1638 99.2521 25.0837 97.3899 25.0837C95.6394 25.0837 94.7083 26.0148 94.5966 27.877V32.0111Z" fill="black"/>
<path d="M146.381 35.0837C146.791 35.0837 147.145 35.2327 147.443 35.5306C147.74 35.8286 147.889 36.1824 147.889 36.5921V43.1842C147.889 43.5939 147.74 43.9477 147.443 44.2457C147.145 44.5436 146.791 44.6926 146.381 44.6926H120.124C119.715 44.6926 119.361 44.5436 119.063 44.2457C118.765 43.9477 118.616 43.5939 118.616 43.1842V36.7597C118.616 35.9775 118.914 35.3258 119.51 34.8044L130.627 25.2513H120.515C120.106 25.2513 119.752 25.1023 119.454 24.8044C119.156 24.5064 119.007 24.1526 119.007 23.7429V17.1508C119.007 16.7411 119.156 16.3873 119.454 16.0893C119.752 15.7914 120.106 15.6424 120.515 15.6424H145.208C145.618 15.6424 145.971 15.7914 146.269 16.0893C146.567 16.3873 146.716 16.7411 146.716 17.1508V24.1899C146.716 24.823 146.456 25.363 145.934 25.81L135.32 35.0837H146.381Z" fill="black"/>
<path d="M182.974 33.4636H166.326V33.7429C166.326 36.0148 167.053 37.1507 168.505 37.1507C168.915 37.1507 169.418 36.8528 170.014 36.2569C170.609 35.661 171.261 35.363 171.969 35.363H182.528C183.347 35.363 183.757 35.7727 183.757 36.5921C183.757 38.417 182.379 40.3164 179.622 42.2904C176.904 44.2643 173.198 45.2512 168.505 45.2512C163.85 45.2512 160.032 44.0408 157.053 41.62C154.11 39.1619 152.639 35.7913 152.639 31.5083V28.8267C152.639 24.7671 154.148 21.4711 157.164 18.9385C160.181 16.3687 164.129 15.0837 169.008 15.0837C173.924 15.0837 177.723 16.5176 180.405 19.3854C183.123 22.2532 184.483 25.8845 184.483 30.2792V31.9552C184.483 32.3649 184.334 32.7187 184.036 33.0166C183.738 33.3146 183.384 33.4636 182.974 33.4636ZM170.796 26.2569C170.796 24.0223 170.051 22.9049 168.561 22.9049C167.071 22.9049 166.326 24.0223 166.326 26.2569V26.4804H170.796V26.2569Z" fill="black"/>
<path d="M201.446 17.1508V19.1061C204.053 16.797 206.958 15.6424 210.161 15.6424H212.843C213.253 15.6424 213.606 15.7914 213.904 16.0893C214.202 16.3873 214.351 16.7411 214.351 17.1508V25.8658C214.351 26.2755 214.202 26.6293 213.904 26.9273C213.606 27.2252 213.253 27.3742 212.843 27.3742H205.636C204.631 27.3742 203.83 27.6163 203.234 28.1005C202.675 28.5474 202.359 29.1619 202.284 29.944V43.1842C202.284 43.5939 202.135 43.9477 201.837 44.2457C201.539 44.5436 201.186 44.6926 200.776 44.6926H190.161C189.752 44.6926 189.398 44.5436 189.1 44.2457C188.802 43.9477 188.653 43.5939 188.653 43.1842V17.1508C188.653 16.7411 188.802 16.3873 189.1 16.0893C189.398 15.7914 189.752 15.6424 190.161 15.6424H199.938C200.348 15.6424 200.701 15.7914 200.999 16.0893C201.297 16.3873 201.446 16.7411 201.446 17.1508Z" fill="black"/>
<path d="M217.998 32.0669V28.2681C217.998 24.0223 219.506 20.7634 222.523 18.4916C225.54 16.2197 229.432 15.0837 234.199 15.0837C238.966 15.0837 242.858 16.2197 245.875 18.4916C248.892 20.7634 250.4 24.0223 250.4 28.2681V32.0669C250.4 36.35 248.948 39.6274 246.042 41.8993C243.137 44.1339 239.19 45.2512 234.199 45.2512C229.208 45.2512 225.26 44.1339 222.355 41.8993C219.45 39.6274 217.998 36.35 217.998 32.0669ZM236.713 32.5139V27.8211C236.713 26.4059 236.527 25.4189 236.154 24.8602C235.782 24.3016 235.13 24.0223 234.199 24.0223C233.268 24.0223 232.616 24.3016 232.244 24.8602C231.871 25.4189 231.685 26.4059 231.685 27.8211V32.5139C231.685 34.0036 231.871 35.0092 232.244 35.5306C232.616 36.052 233.268 36.3127 234.199 36.3127C235.13 36.3127 235.782 36.0334 236.154 35.4747C236.527 34.9161 236.713 33.9291 236.713 32.5139Z" fill="black"/>
</svg>
